<svg xmlns="http://www.w3.org/2000/svg" width="1920" height="1080" viewBox="0 0 1920 1080">
  <defs>
    <linearGradient id="bg" x1="0" y1="0" x2="1" y2="1">
      <stop offset="0%" stop-color="#01020b"/>
      <stop offset="60%" stop-color="#061a38"/>
      <stop offset="100%" stop-color="#0a2f55"/>
    </linearGradient>
    <radialGradient id="glow" cx="0.5" cy="0.5" r="0.55">
      <stop offset="0%" stop-color="#1de5ff" stop-opacity="0.55"/>
      <stop offset="70%" stop-color="#1de5ff" stop-opacity="0.05"/>
      <stop offset="100%" stop-color="#1de5ff" stop-opacity="0"/>
    </radialGradient>
    <clipPath id="avatarCircle">
      <circle cx="960" cy="540" r="220"/>
    </clipPath>
  </defs>
  <rect width="1920" height="1080" fill="url(#bg)"/>
  <circle cx="960" cy="540" r="380" fill="url(#glow)" opacity="0.9"/>
  <circle cx="960" cy="540" r="260" fill="none" stroke="#00d4ff" stroke-width="10"/>
  <g clip-path="url(#avatarCircle)">
    <rect x="740" y="320" width="440" height="440" fill="#060b1a"/>
    <image href="maindp.gif" x="740" y="320" width="440" height="440" preserveAspectRatio="xMidYMid slice"/>
  </g>
  <circle cx="960" cy="540" r="260" fill="none" stroke="#4df9ff" stroke-width="6" stroke-dasharray="10 18"/>
  <text x="220" y="410" fill="#7be8ff" font-family="Orbitron, 'Segoe UI', sans-serif" font-size="56" letter-spacing="4">
    TurnpointPurger
  </text>
  <text x="220" y="470" fill="#c8f4ff" font-family="'Space Mono', 'JetBrains Mono', monospace" font-size="28">
    Powered by Nexix365 Middleware
  </text>
  <text x="220" y="530" fill="#5be9ff" font-family="'Space Mono', monospace" font-size="22">
    Zero-trace client extraction • NexisID 10000x • (Far)H4n_SOLO
  </text>
  <rect x="220" y="650" width="480" height="10" rx="5" fill="#102c44"/>
  <rect x="220" y="650" width="320" height="10" rx="5" fill="#18e0ff"/>
  <rect x="220" y="680" width="480" height="10" rx="5" fill="#102c44" opacity="0.6"/>
  <rect x="220" y="680" width="420" height="10" rx="5" fill="#1f4dff" opacity="0.8"/>
  <g transform="translate(1500,120)">
    <rect width="340" height="120" rx="28" fill="#060c19" stroke="#19c9ff" stroke-width="2"/>
    <text x="170" y="55" text-anchor="middle" fill="#8cf0ff" font-family="Orbitron" font-size="22">
      Powered by Nexix365
    </text>
    <image href="nexismascot.png" x="250" y="20" width="70" height="70" preserveAspectRatio="xMidYMid meet"/>
  </g>
  <text x="960" y="910" text-anchor="middle" fill="#6bc5ff" font-family="'Space Mono', monospace" font-size="24">
    “Thanks for using my Middleware, Operator. This time I’m not charging you.”
  </text>
</svg>
